<svg version="1.1" id="Layer_1" xmlns="http://www.w3.org/2000/svg" xmlns:xlink="http://www.w3.org/1999/xlink" x="0px" y="0px"
	 width="100%" viewBox="0 0 750 750" enable-background="new 0 0 750 750" xml:space="preserve">
<path fill="#000000" opacity="1.000000" stroke="none" 
	d="
M380.000000,751.000000 
	C253.333328,751.000000 127.166664,751.000000 1.000000,751.000000 
	C1.000000,501.000000 1.000000,251.000000 1.000000,1.000000 
	C251.000000,1.000000 501.000000,1.000000 751.000000,1.000000 
	C751.000000,251.000000 751.000000,501.000000 751.000000,751.000000 
	C627.500000,751.000000 504.000000,751.000000 380.000000,751.000000 
M323.691620,279.408722 
	C323.691620,279.408722 323.627838,279.366089 323.082123,279.980194 
	C323.233734,280.999054 323.385376,282.017883 323.800110,283.642609 
	C323.849731,284.076569 323.899353,284.510529 323.565277,285.393799 
	C324.373077,287.258453 325.180847,289.123077 326.009064,291.002686 
	C326.009064,291.002686 325.997345,291.025146 325.849182,291.838989 
	C326.359924,294.434601 326.870697,297.030182 327.381439,299.625793 
	C327.110565,299.197021 326.839722,298.768250 326.568878,298.339447 
	C324.328033,299.432220 322.087219,300.524963 319.425537,301.915039 
	C319.253906,301.921204 319.082245,301.927399 318.112793,301.802399 
	C316.420013,302.547302 314.727203,303.292236 313.007141,304.000000 
	C313.007141,304.000000 313.023621,304.040283 312.406616,303.929810 
	C311.950775,304.304718 311.494934,304.679626 311.002441,304.999603 
	C311.002441,304.999603 311.043915,305.053223 310.552246,304.985840 
	C310.185944,305.081085 309.976593,305.316162 309.593781,305.983276 
	C309.593781,305.983276 309.156921,306.044495 308.499359,305.959778 
	C308.043549,306.373810 307.587738,306.787842 307.052490,307.014557 
	C307.052490,307.014557 307.163666,307.184998 306.519684,307.072357 
	C305.978607,307.659485 305.437531,308.246613 304.739319,309.124634 
	C304.739319,309.124634 304.416321,309.195068 303.677155,309.097137 
	C301.942627,309.396606 299.294617,308.926270 301.188080,312.682037 
	C302.491364,313.627075 303.668213,314.892029 305.118469,315.465057 
	C314.357635,319.115570 323.657043,322.613647 333.176239,326.845490 
	C335.469269,327.004089 337.762329,327.162689 340.681824,327.261505 
	C341.071381,327.404327 341.460907,327.547150 342.257233,328.313263 
	C351.765137,330.349518 353.771423,329.503418 355.804901,322.916840 
	C356.522247,322.941406 357.239624,322.965942 358.538025,322.970428 
	C358.694305,322.644867 358.850555,322.319305 359.059906,321.491272 
	C359.143433,321.345032 359.226929,321.198792 359.831909,320.634460 
	C359.900299,319.768066 359.968719,318.901703 360.021088,317.293060 
	C360.205627,316.581299 360.390198,315.869507 361.258148,314.972229 
	C361.886322,312.395142 362.514496,309.818054 363.090973,307.117157 
	C363.090973,307.117157 363.225006,307.112213 363.933929,307.059998 
	C365.191772,304.224243 366.532745,301.421417 367.674713,298.539734 
	C368.307861,296.941986 368.608429,295.212463 369.768951,293.666138 
	C370.444946,293.421539 371.120941,293.176941 372.619476,293.033478 
	C373.452454,294.123657 374.285400,295.213867 374.832611,296.879425 
	C368.063171,305.857330 365.789429,316.486877 362.348053,328.201874 
	C368.771606,327.300232 373.748169,326.601685 379.374847,325.911926 
	C379.582184,325.848785 379.789520,325.785614 380.593903,325.895325 
	C381.007507,325.892822 381.421082,325.890320 382.696594,326.065796 
	C385.610626,325.522552 388.524689,324.979340 390.177948,324.671112 
	C391.918549,326.535370 393.047485,328.730652 394.085205,328.688385 
	C399.072571,328.485168 404.035309,327.677673 409.041931,327.018829 
	C409.041931,327.018829 409.102234,327.062988 409.679199,327.178864 
	C410.127289,326.842163 410.575348,326.505463 411.834900,325.973846 
	C423.561768,324.254791 434.044739,319.653748 445.170288,311.709015 
	C437.371796,307.765259 430.709259,304.436768 424.086182,301.031586 
	C419.990509,298.925873 416.780823,299.269836 414.172577,303.960815 
	C413.570648,303.298920 412.538452,302.685120 412.457916,301.964905 
	C412.298798,300.542175 412.666443,299.060577 412.787689,297.277893 
	C412.787689,297.277893 413.031097,297.060028 413.668640,296.966339 
	C414.114410,295.632263 414.560150,294.298157 415.042908,292.303772 
	C415.054260,291.867554 415.065582,291.431335 415.486176,290.537537 
	C415.681915,289.753998 415.877625,288.970490 416.700439,287.769531 
	C418.246307,282.606812 418.246307,282.606812 415.702484,280.722748 
	C415.702484,280.722748 415.471680,280.872467 415.127502,280.345123 
	C414.595123,280.520325 414.062744,280.695526 412.824951,280.724945 
	C411.883484,280.884399 410.941986,281.043854 409.133148,280.989288 
	C398.474609,281.619324 387.934143,282.596130 379.152618,290.922913 
	C378.095367,290.246033 377.038147,289.569153 376.267700,288.302307 
	C377.654327,287.229736 379.040955,286.157166 380.827301,285.076782 
	C381.111328,284.929077 381.206665,284.702179 381.092529,284.120148 
	C381.092529,284.120148 380.954712,283.880188 381.723450,283.975586 
	C385.734833,282.740845 389.595032,281.294159 391.670898,276.593079 
	C391.670898,276.593079 391.504211,276.126404 391.758148,275.541504 
	C391.504791,274.360474 391.251465,273.179474 391.012543,271.246704 
	C390.942810,270.502197 390.873077,269.757721 390.961731,268.282928 
	C390.376495,266.095398 390.166748,263.710907 389.140503,261.754761 
	C384.869232,253.613129 380.354034,245.599411 375.924225,237.541016 
	C373.861938,233.789490 370.928864,234.300827 368.751648,236.883286 
	C365.270020,241.012939 362.376221,245.638184 359.022949,250.112030 
	C359.022949,250.112030 359.096222,250.318253 358.578735,250.714813 
	C356.461670,256.158936 354.344635,261.603027 352.049713,266.898499 
	C352.049713,266.898499 351.818420,266.914337 351.057129,267.127136 
	C350.567657,271.453857 350.215637,275.803375 349.503784,280.093201 
	C349.293884,281.358063 348.066650,282.454102 346.643372,283.612457 
	C345.797821,283.370636 344.952240,283.128815 343.990875,282.203217 
	C342.003326,281.817169 340.015808,281.431091 337.276428,281.040649 
	C336.528534,280.984619 335.780609,280.928619 334.922424,280.213593 
	C335.362396,278.510590 335.802368,276.807617 336.939056,274.976379 
	C337.558350,275.173157 338.169006,275.501892 338.798523,275.543213 
	C341.166626,275.698730 344.228363,276.721832 345.751740,275.632294 
	C348.039093,273.996338 347.098358,265.138092 345.117554,263.879639 
	C342.503815,262.219055 339.804291,260.693512 335.797852,258.310699 
	C335.110443,262.204193 334.520844,265.543762 333.384735,269.302338 
	C330.570129,272.191345 327.755554,275.080353 324.518250,278.032623 
	C324.244263,278.148376 324.038177,278.337952 323.639526,278.985474 
	C323.639526,278.985474 323.725769,279.441467 323.691620,279.408722 
M565.000000,452.997559 
	C565.000000,452.997559 565.103271,452.926147 565.247314,452.105042 
	C565.409668,450.637421 565.836304,449.141998 565.685486,447.707306 
	C565.203979,443.126923 564.507996,438.569061 563.511353,433.451752 
	C558.764587,426.576508 551.732239,429.280548 545.298462,428.625763 
	C545.298462,448.272919 545.298462,467.418060 545.298462,486.947296 
	C552.733398,486.406006 560.346741,488.715912 566.630249,481.763062 
	C567.377441,480.675598 568.541138,479.673096 568.784119,478.482697 
	C569.272461,476.090240 568.874939,473.487244 569.529236,471.164368 
	C571.044495,465.784729 570.492188,457.961182 566.004150,455.009552 
	C566.004150,455.009552 565.966431,455.037750 566.133362,454.412445 
	C565.789795,453.915924 565.446228,453.419434 565.000000,452.997559 
M126.287697,487.126221 
	C127.857277,487.093231 129.426865,487.060242 131.905853,486.973114 
	C135.475586,486.869141 139.045303,486.765167 143.275574,486.836578 
	C143.967850,486.548462 144.660141,486.260315 145.352417,485.972168 
	C144.615631,485.232086 143.878860,484.492035 143.040344,483.204041 
	C143.045563,482.833313 143.050781,482.462555 143.449661,481.651398 
	C143.315033,480.746124 143.180389,479.840881 142.989349,478.059082 
	C143.033447,475.714050 143.077545,473.368988 143.533554,470.454926 
	C143.447571,468.629150 143.361572,466.803345 143.239914,464.266357 
	C143.273697,463.555420 143.307465,462.844482 143.903061,461.617340 
	C144.485321,456.414703 145.055130,451.210663 145.655624,446.010132 
	C145.915161,443.762390 146.238068,441.521973 146.532181,439.278229 
	C146.973648,439.285950 147.415115,439.293640 147.856567,439.301331 
	C148.053085,439.845917 148.414490,440.388214 148.421967,440.935394 
	C148.604172,454.267975 148.756104,467.601013 148.891815,480.934174 
	C148.911835,482.901031 148.464798,484.945404 148.864578,486.819397 
	C149.545395,490.010834 150.885666,489.317963 153.010574,486.914642 
	C157.470795,486.914673 161.937866,487.055908 166.387604,486.840057 
	C167.998032,486.761963 169.566971,485.828857 171.704910,484.688904 
	C172.459213,480.917114 172.099060,476.576538 167.671219,476.736176 
	C161.034561,476.975403 161.351303,473.363007 161.595261,469.013000 
	C161.697403,467.191986 161.949097,465.328461 161.691818,463.548004 
	C160.999771,458.758575 163.201736,457.325592 167.643921,457.557098 
	C169.226807,457.639618 170.866272,456.636536 172.479904,456.128967 
	C171.725662,453.995392 170.971420,451.861786 169.942657,448.973053 
	C167.476242,448.557495 164.951523,448.341003 162.568008,447.642578 
	C161.374939,447.292969 160.439514,446.064209 160.051437,445.060913 
	C161.407013,444.163513 162.762589,443.266113 164.118164,442.368713 
	C162.560608,440.843719 161.003052,439.318756 159.605606,437.155029 
	C161.376404,436.976837 163.147202,436.798676 165.297348,436.944214 
	C165.297348,436.944214 165.795059,436.968536 165.795059,436.968536 
	C165.795059,436.968536 166.200684,436.679138 166.761307,436.658234 
	C167.132797,436.698303 167.504288,436.738342 168.475204,437.109406 
	C169.745239,437.364044 172.084946,437.960236 172.128662,437.823334 
	C173.185257,434.514038 174.082169,431.141968 174.700348,427.725525 
	C174.753387,427.432434 172.672363,426.346191 171.565552,426.318726 
	C165.964096,426.179779 160.354446,426.185608 154.754242,426.356537 
	C153.761826,426.386810 152.800552,427.437866 151.707153,428.219238 
	C151.707153,428.219238 151.492401,428.311005 150.627151,428.222107 
	C149.898834,427.884430 149.200119,427.441986 148.437271,427.226440 
	C144.205994,426.030609 139.950272,424.739471 136.002563,427.994690 
	C136.002563,427.994690 135.947464,427.963898 135.256149,427.966858 
	C132.425797,429.545013 131.974213,430.970215 135.651688,432.859467 
	C135.565323,433.828613 135.478943,434.797760 134.747452,435.935455 
	C133.341995,437.896454 131.936554,439.857483 130.300171,441.139374 
	C130.262833,440.425293 130.225494,439.711243 130.509399,438.829865 
	C130.387802,438.545654 130.266205,438.261475 130.069321,437.318542 
	C130.075500,436.876678 130.081680,436.434784 130.520264,435.382660 
	C130.913208,426.368317 130.913177,426.372955 122.399216,426.304199 
	C120.574715,426.289459 118.662209,425.890015 116.964554,426.334137 
	C116.147820,426.547791 115.736809,428.312347 115.250839,430.259125 
	C115.250839,449.295776 115.250839,468.332458 115.250839,487.048218 
	C117.691246,487.048218 119.821365,487.048218 122.167076,487.643402 
	C123.296867,487.395569 124.426666,487.147705 126.287697,487.126221 
M407.826996,272.156647 
	C407.903015,270.525726 407.979065,268.894775 408.851685,267.085602 
	C410.905762,263.814850 410.545013,260.451752 407.411591,258.621765 
	C405.918701,257.749908 402.982727,258.952087 400.859009,259.678406 
	C399.040039,260.300537 397.334503,261.441132 395.810211,262.645355 
	C395.208710,263.120575 395.233978,264.389160 394.977997,265.904999 
	C395.007324,266.512207 395.036652,267.119415 394.492798,268.320038 
	C394.462402,270.468964 394.124756,272.670227 394.479401,274.753601 
	C394.921936,277.353180 396.574493,277.929352 399.464661,276.261169 
	C401.568085,275.947998 403.671478,275.634857 405.877533,276.039551 
	C406.896759,276.549866 407.970642,277.555786 408.922058,277.450928 
	C410.252380,277.304321 411.491425,276.329315 412.769501,275.708710 
	C411.175812,274.792786 409.582092,273.876892 407.826996,272.156647 
M336.018433,428.039856 
	C336.018433,428.039856 336.236145,428.264221 335.429688,428.231415 
	C332.269135,429.865784 329.108582,431.500153 325.669159,432.507416 
	C320.106110,425.866547 312.491180,428.259766 305.341217,427.407318 
	C305.341217,447.504578 305.341217,467.083557 305.341217,486.626709 
	C313.657806,488.322479 314.271362,488.034515 314.038574,480.079132 
	C313.918518,475.977112 315.728912,474.035522 319.310883,473.901459 
	C323.541992,473.743134 325.494080,471.328979 327.501556,467.468445 
	C327.890778,459.532135 328.123962,451.583191 328.765686,443.667328 
	C328.954590,441.337250 330.300110,439.100922 331.115570,436.821625 
	C331.692993,436.981720 332.270416,437.141815 332.847839,437.301941 
	C333.060760,438.375824 333.442902,439.446869 333.460938,440.524017 
	C333.691956,454.327850 333.829803,468.133392 334.118469,481.935852 
	C334.152100,483.544128 334.946533,485.136475 336.227722,486.855286 
	C338.636658,486.855286 341.045563,486.855286 343.318237,486.855286 
	C343.705902,483.083954 344.012146,480.104431 344.318420,477.124908 
	C344.811646,477.069489 345.304901,477.014069 345.798157,476.958649 
	C346.380768,478.542480 347.112946,480.089020 347.519196,481.716888 
	C348.998871,487.646271 351.213409,488.760010 357.354370,486.174316 
	C357.012360,484.501007 356.971344,482.601135 356.235291,481.026093 
	C354.231293,476.737762 352.036499,472.637421 356.556274,468.494659 
	C357.137543,467.961853 357.057770,466.608978 357.120605,465.625488 
	C357.532928,459.171051 358.081726,452.718292 358.243652,446.256378 
	C358.558197,433.700806 356.325409,430.281342 346.765778,427.353119 
	C343.131561,426.119690 339.462677,424.477966 336.018433,428.039856 
M434.130493,435.108246 
	C434.124634,433.080627 434.118744,431.052979 434.848785,429.064453 
	C436.246765,430.047852 437.644714,431.031281 439.401428,432.267059 
	C438.754761,430.421906 438.376190,427.099152 437.346649,426.883453 
	C435.367279,426.468750 433.019135,427.814056 430.081299,428.577271 
	C429.072723,428.620422 428.064117,428.663574 426.792816,428.420441 
	C426.605621,428.677826 426.418427,428.935211 426.114532,430.098938 
	C426.163513,444.883453 426.109985,459.669739 426.361542,474.450806 
	C426.403839,476.936584 427.219666,479.781433 428.628845,481.794983 
	C431.659149,486.124817 436.351624,487.521027 441.411011,486.427643 
	C446.722137,485.279877 449.159271,481.193146 450.974670,475.972534 
	C451.351654,474.101105 452.013916,472.236450 452.058685,470.357086 
	C452.319855,459.388794 452.395203,448.416046 452.658661,437.447815 
	C452.688324,436.211975 453.253082,434.807129 454.002747,433.804352 
	C456.307373,430.721588 454.086182,428.903107 451.962769,427.890137 
	C450.695465,427.285492 448.614685,428.385986 446.077332,428.974609 
	C444.837311,429.092621 443.597290,429.210602 442.184265,429.345093 
	C442.184265,444.016479 442.295502,458.274902 442.045410,472.526978 
	C442.013672,474.336487 440.090973,476.112823 439.044342,477.904541 
	C437.656097,476.660095 436.267822,475.415649 434.985992,473.666656 
	C434.760864,473.437073 434.535767,473.207489 434.140167,472.057251 
	C434.205811,463.099884 434.271454,454.142487 434.957764,444.933350 
	C436.437866,441.810791 437.012238,438.759094 434.130493,435.108246 
M619.962463,487.008820 
	C622.540894,487.165619 625.119324,487.322418 628.050415,488.101959 
	C630.795410,489.561768 632.167786,488.676971 632.139587,485.628235 
	C632.038452,474.682617 631.905762,463.737274 631.747437,451.903229 
	C631.810181,448.608765 631.872925,445.314331 632.387756,441.406738 
	C632.862793,438.378082 633.713623,435.351929 633.733521,432.320312 
	C633.773376,426.258850 630.387573,424.612457 624.277283,427.931366 
	C624.035034,428.158173 623.807617,428.398987 622.854065,428.969910 
	C622.552307,431.868622 622.508667,434.827942 621.847595,437.642242 
	C621.477295,439.218445 620.084167,440.554413 618.987671,441.078186 
	C618.585022,436.642761 618.182373,432.207336 617.757568,427.528046 
	C613.252930,427.528046 608.984863,427.528046 604.521240,427.528046 
	C604.384827,428.526764 604.184631,429.318024 604.182007,430.109924 
	C604.121643,448.234406 604.070679,466.358948 604.076660,484.483459 
	C604.076965,485.376038 604.609070,486.268463 605.085754,487.857086 
	C609.429932,488.139771 613.772827,488.455566 618.121338,488.633789 
	C618.424927,488.646210 618.770447,487.638489 619.962463,487.008820 
M399.027435,428.396210 
	C397.754730,428.683105 396.482025,428.970001 395.010742,429.301666 
	C395.010742,445.624725 394.914520,461.767883 395.046265,477.909180 
	C395.127289,487.838776 392.736542,487.085510 404.426483,486.863342 
	C413.578400,486.689453 417.974457,481.889526 418.173676,472.771698 
	C418.347870,464.797974 418.890015,456.825684 418.831207,448.855988 
	C418.798462,444.418762 418.617859,439.725769 417.174652,435.614685 
	C414.879303,429.076355 408.969757,426.979370 399.027435,428.396210 
M373.106934,428.895905 
	C368.395813,430.296906 365.884369,433.533478 365.835815,438.366425 
	C365.713989,450.502167 366.168274,462.658142 365.604492,474.769379 
	C365.286438,481.602020 371.168274,486.475983 376.334778,486.820648 
	C382.187592,487.211060 387.794922,482.276093 387.956055,475.556274 
	C388.258850,462.926727 388.202637,450.273895 387.783813,437.647736 
	C387.563477,431.005371 380.224792,426.703186 373.106934,428.895905 
M205.590942,487.062897 
	C208.287277,487.062897 210.983612,487.062897 213.465469,487.062897 
	C214.072601,481.042206 214.313675,475.697510 215.327927,470.503754 
	C215.609695,469.060913 218.067886,467.402405 219.748184,467.109802 
	C220.781708,466.929901 222.911148,468.933167 223.362885,470.337555 
	C224.466248,473.767731 224.939102,477.409454 225.558731,480.984558 
	C226.637482,487.208710 228.418060,488.184052 234.659225,485.996002 
	C233.580994,479.355042 232.605240,472.733826 231.415009,466.151337 
	C229.387115,454.936157 226.997116,443.780334 225.264648,432.521820 
	C224.779938,429.371887 223.551300,428.069489 220.828949,427.722565 
	C218.549744,427.432098 216.232040,427.443695 213.659210,427.307068 
	C212.354248,436.554504 211.092026,445.494537 209.831543,454.434814 
	C209.576218,456.245911 209.345001,458.060577 209.072845,459.869080 
	C207.731018,468.785797 206.379196,477.701019 205.590942,487.062897 
M178.017334,441.510986 
	C178.017334,456.554993 178.017334,471.598999 178.017334,486.795959 
	C181.384445,486.795959 183.958389,486.795959 186.359497,486.795959 
	C186.688690,486.161804 186.939377,485.882385 186.968170,485.581665 
	C187.030792,484.927551 187.095352,484.237610 186.958115,483.605988 
	C185.624878,477.469391 188.473724,474.589600 194.260864,473.195312 
	C198.234024,472.238037 200.168808,468.719238 200.264404,464.863159 
	C200.494904,455.563904 200.836182,446.213837 200.127914,436.961151 
	C199.521851,429.043304 190.979218,426.781250 180.829269,427.582855 
	C175.083313,428.036621 179.150558,433.533112 178.079285,436.552063 
	C177.660172,437.733093 178.012405,439.187866 178.017334,441.510986 
M574.185913,442.678528 
	C574.194214,453.485199 574.114990,464.292999 574.249207,475.098083 
	C574.312744,480.214355 577.627686,484.584930 582.215454,485.962311 
	C586.537781,487.259979 590.634155,486.553406 593.584961,483.050751 
	C596.834534,479.193604 597.949951,474.583618 596.703918,469.572021 
	C594.004028,469.572021 591.408447,469.572021 588.540405,469.572021 
	C588.424011,471.299011 588.591736,472.838531 588.153564,474.180145 
	C587.715820,475.520081 586.671570,476.661896 585.893250,477.890594 
	C585.023560,476.595886 583.509460,475.341522 583.425476,473.997650 
	C583.274963,471.591614 584.325317,469.123718 584.268555,466.695831 
	C584.130798,460.801666 583.341553,454.912170 583.407837,449.027496 
	C583.451416,445.151764 585.404663,442.460785 590.103760,443.147125 
	C592.316223,443.470306 594.615051,443.202515 596.904419,443.202515 
	C597.838135,438.353546 596.600037,434.598663 593.366577,431.517181 
	C591.809692,430.033447 589.907898,427.319122 588.510193,427.524933 
	C580.752747,428.667084 573.776794,431.022858 574.185913,442.678528 
M466.738434,463.498627 
	C466.745270,459.175354 466.621277,454.846985 466.790588,450.530090 
	C467.026306,444.520721 469.176086,442.730896 474.973907,443.202179 
	C476.752625,443.346771 478.552979,443.224670 480.314301,443.224670 
	C481.263062,435.666443 477.395294,428.907043 471.936676,428.318237 
	C463.930542,427.454620 458.322113,432.357849 458.160034,440.898651 
	C457.948730,452.035156 457.808380,463.192932 458.313690,474.310822 
	C458.463165,477.599091 460.257538,481.329376 462.440430,483.879150 
	C465.244415,487.154327 472.109406,487.249817 475.471771,485.093384 
	C479.098846,482.767181 481.332367,475.509766 480.149475,469.894104 
	C472.505432,468.569427 472.532623,468.592194 471.527313,475.178162 
	C471.384094,476.116272 470.461914,476.935486 469.900238,477.809692 
	C468.995850,477.018799 467.413208,476.309814 467.306000,475.422607 
	C466.869507,471.809418 466.884888,468.141693 466.738434,463.498627 
M498.257874,442.489532 
	C498.255768,455.151398 498.277344,467.813354 498.242065,480.475128 
	C498.222565,487.474670 499.781677,488.545502 507.259674,486.153229 
	C507.259674,469.689758 507.259674,453.112549 507.259674,436.112000 
	C510.663818,436.112000 513.718506,436.112000 517.159790,436.112000 
	C516.162048,432.852081 519.191406,428.137146 513.646729,427.859528 
	C505.075317,427.430389 496.466614,427.746399 487.862549,427.746399 
	C487.862549,430.686829 487.862549,433.386017 487.862549,436.577118 
	C491.524261,436.577118 494.767059,436.577118 498.262177,436.577118 
	C498.262177,438.539001 498.262177,440.009918 498.257874,442.489532 
M241.898148,437.633789 
	C241.898148,453.893890 241.898148,470.153961 241.898148,486.590851 
	C248.922943,486.590851 255.330582,486.590851 261.702026,486.590851 
	C262.419434,478.704437 262.419434,478.704437 250.891083,477.683807 
	C250.891083,461.185028 250.891083,444.624359 250.891083,428.184387 
	C242.552917,426.438354 241.633881,427.104980 241.890930,434.196808 
	C241.921066,435.028046 241.896942,435.861267 241.898148,437.633789 
M268.857849,433.913330 
	C268.857849,451.366516 268.857849,468.819702 268.857849,486.610352 
	C271.953278,486.610352 274.654205,486.610352 277.769653,486.610352 
	C277.769653,468.381042 277.666473,450.579712 277.855957,432.781494 
	C277.894226,429.184692 277.084229,427.678436 273.264679,427.649689 
	C269.158234,427.618774 268.481354,429.732147 268.857849,433.913330 
z"/>
<path fill="#F0DEF1" opacity="1.000000" stroke="none" 
	d="
M631.935669,442.019867 
	C631.872925,445.314331 631.810181,448.608765 631.558105,452.718201 
	C631.281433,463.572235 631.087158,473.612274 631.177124,483.649750 
	C631.201660,486.376831 630.428040,487.622131 627.697754,487.479248 
	C625.119324,487.322418 622.540894,487.165619 619.242676,486.752625 
	C617.217773,477.333160 615.912598,468.169861 614.607422,459.006592 
	C613.925415,459.078217 613.243347,459.149872 612.561340,459.221497 
	C612.561340,468.398041 612.561340,477.574554 612.561340,486.794434 
	C609.518738,486.939880 607.206116,487.050415 604.893494,487.160950 
	C604.609070,486.268463 604.076965,485.376038 604.076660,484.483459 
	C604.070679,466.358948 604.121643,448.234406 604.182007,430.109924 
	C604.184631,429.318024 604.384827,428.526764 604.521240,427.528046 
	C608.984863,427.528046 613.252930,427.528046 617.757568,427.528046 
	C618.182373,432.207336 618.585022,436.642761 618.999573,441.957611 
	C620.292786,451.303253 621.574158,459.769470 622.855469,468.235718 
	C623.101990,468.258575 623.348511,468.281403 623.595032,468.304260 
	C623.595032,455.087463 623.595032,441.870636 623.595032,428.653809 
	C623.807617,428.398987 624.035034,428.158173 624.915283,427.892029 
	C631.964722,428.179626 631.937195,428.179138 631.820007,434.671356 
	C631.775940,437.119385 631.892334,439.570282 631.935669,442.019867 
z"/>
<path fill="#FDFBFE" opacity="1.000000" stroke="none" 
	d="
M413.031097,297.060028 
	C413.031097,297.060028 412.787689,297.277893 412.565247,297.495270 
	C412.342834,297.712646 411.932281,297.970856 411.586182,298.014648 
	C405.867950,304.779694 400.491760,311.497711 395.142792,318.237335 
	C394.977631,318.445435 395.095032,318.877808 394.948914,319.425903 
	C394.498047,319.749664 394.178955,319.853180 393.676025,319.986877 
	C393.243988,320.119232 393.083588,320.299561 392.762054,320.838196 
	C389.096558,322.452576 385.679962,323.786713 381.954590,325.063385 
	C381.096191,325.244751 380.546539,325.483612 379.996887,325.722443 
	C379.789520,325.785614 379.582184,325.848785 378.606232,325.893860 
	C375.687775,325.913788 373.537720,325.994232 371.388184,325.981201 
	C366.361786,325.950714 365.209717,324.608795 366.126617,319.674194 
	C366.362976,318.402161 366.986572,317.191162 367.507965,315.984833 
	C370.346069,309.418304 373.207794,302.862000 376.037292,296.214233 
	C376.013214,296.126312 376.190704,296.084412 376.498352,296.029144 
	C377.206268,295.320496 377.606537,294.667114 378.089325,293.768494 
	C378.461182,293.355621 378.750488,293.188019 379.408112,293.030518 
	C385.070129,290.239746 390.187561,287.001495 395.712738,284.774780 
	C400.222595,282.957214 405.219543,282.348175 410.000519,281.203308 
	C410.941986,281.043854 411.883484,280.884399 413.663910,280.852539 
	C414.825806,280.944214 415.148743,280.908325 415.471680,280.872467 
	C415.471680,280.872467 415.702484,280.722748 415.827484,281.258698 
	C415.992767,283.925415 416.033051,286.056183 416.073364,288.186951 
	C415.877625,288.970490 415.681915,289.753998 414.926331,290.811249 
	C412.260468,291.936371 411.084167,293.055328 413.169250,295.449646 
	C413.099701,296.204224 413.065399,296.632111 413.031097,297.060028 
z"/>
<path fill="#F3E5F4" opacity="1.000000" stroke="none" 
	d="
M130.188156,438.997162 
	C130.225494,439.711243 130.262833,440.425293 130.339600,441.901367 
	C131.690048,450.910156 133.001038,459.156921 134.312042,467.403687 
	C134.672211,467.412689 135.032394,467.421692 135.392563,467.430725 
	C135.392563,456.876099 135.392563,446.321503 135.392563,435.766907 
	C135.478943,434.797760 135.565323,433.828613 135.667984,432.081787 
	C135.772003,430.190704 135.859726,429.077301 135.947449,427.963898 
	C135.947464,427.963898 136.002563,427.994690 136.436295,428.010529 
	C143.289551,427.890442 143.249420,427.890442 143.247208,434.371460 
	C143.244034,443.625488 143.306686,452.879517 143.341232,462.133545 
	C143.307465,462.844482 143.273697,463.555420 143.105392,465.030579 
	C143.021133,467.537872 143.071396,469.280914 143.121643,471.023956 
	C143.077545,473.368988 143.033447,475.714050 142.870636,478.878906 
	C142.853287,480.496460 142.954651,481.294128 143.056000,482.091827 
	C143.050781,482.462555 143.045563,482.833313 142.949707,483.826263 
	C142.777725,485.186066 142.696381,485.923615 142.615036,486.661194 
	C139.045303,486.765167 135.475586,486.869141 131.196289,486.687073 
	C129.610718,479.016388 128.734726,471.631775 127.908905,463.805603 
	C126.514557,456.912262 125.070061,450.460541 123.625557,444.008789 
	C123.020111,453.715424 123.132217,463.349457 122.971992,472.978973 
	C122.893883,477.673065 122.307693,482.358734 121.951485,487.048218 
	C119.821365,487.048218 117.691246,487.048218 115.250839,487.048218 
	C115.250839,468.332458 115.250839,449.295776 115.545914,429.570038 
	C118.765137,428.596558 121.689842,428.317657 124.613304,428.026306 
	C127.991425,427.689606 129.519211,429.300537 129.594711,432.604034 
	C129.620605,433.736816 129.915756,434.863464 130.087875,435.992920 
	C130.081680,436.434784 130.075500,436.876678 130.002731,437.907532 
	C130.020142,438.663422 130.104156,438.830292 130.188156,438.997162 
z"/>
<path fill="#FDFBFE" opacity="1.000000" stroke="none" 
	d="
M391.504211,276.126404 
	C391.504211,276.126404 391.670898,276.593079 391.199951,276.899109 
	C387.470886,279.430145 384.212799,281.655182 380.954712,283.880188 
	C380.954712,283.880188 381.092529,284.120148 380.913757,284.165100 
	C380.735016,284.210083 380.316498,284.160919 379.952454,284.200409 
	C377.331940,285.757324 374.606873,286.884552 372.936859,288.890259 
	C370.816620,291.436768 369.657074,290.869873 367.441986,289.130432 
	C364.493896,286.815338 361.072235,285.103363 357.919006,283.074158 
	C357.984039,283.016022 357.876984,283.153748 357.890869,282.793823 
	C353.857941,278.737213 350.850311,274.585236 351.847748,268.371887 
	C351.820831,267.689087 351.819611,267.301697 351.818420,266.914337 
	C351.818420,266.914337 352.049713,266.898499 352.440063,266.791077 
	C354.919006,261.228546 357.007629,255.773392 359.096222,250.318253 
	C359.096222,250.318253 359.022949,250.112030 359.460876,250.042404 
	C360.598938,249.302887 361.410919,248.716354 361.982056,247.950256 
	C367.974243,239.912170 373.817566,239.720108 379.946960,247.530472 
	C381.156250,249.071426 381.932007,250.968033 382.815277,252.746521 
	C385.502258,258.156677 388.144012,263.589325 390.803345,269.013214 
	C390.873077,269.757721 390.942810,270.502197 390.739868,271.867432 
	C390.812866,273.700897 391.158539,274.913666 391.504211,276.126404 
z"/>
<path fill="#F0DEF1" opacity="1.000000" stroke="none" 
	d="
M399.375916,428.311584 
	C408.969757,426.979370 414.879303,429.076355 417.174652,435.614685 
	C418.617859,439.725769 418.798462,444.418762 418.831207,448.855988 
	C418.890015,456.825684 418.347870,464.797974 418.173676,472.771698 
	C417.974457,481.889526 413.578400,486.689453 404.426483,486.863342 
	C392.736542,487.085510 395.127289,487.838776 395.046265,477.909180 
	C394.914520,461.767883 395.010742,445.624725 395.010742,429.301666 
	C396.482025,428.970001 397.754730,428.683105 399.375916,428.311584 
M407.060974,436.834808 
	C404.113312,436.177917 403.800232,437.874725 403.823853,440.214355 
	C403.900940,447.845428 403.855560,455.477783 403.856628,463.109619 
	C403.857300,468.021820 403.856720,472.934021 403.856720,477.832214 
	C408.564941,478.309265 410.317993,476.654572 410.247314,472.535675 
	C410.102112,464.076843 410.432343,455.605408 410.114014,447.156189 
	C409.987885,443.808472 408.657288,440.506104 407.060974,436.834808 
z"/>
<path fill="#F0DEF1" opacity="1.000000" stroke="none" 
	d="
M373.443512,428.823029 
	C380.224792,426.703186 387.563477,431.005371 387.783813,437.647736 
	C388.202637,450.273895 388.258850,462.926727 387.956055,475.556274 
	C387.794922,482.276093 382.187592,487.211060 376.334778,486.820648 
	C371.168274,486.475983 365.286438,481.602020 365.604492,474.769379 
	C366.168274,462.658142 365.713989,450.502167 365.835815,438.366425 
	C365.884369,433.533478 368.395813,430.296906 373.443512,428.823029 
M378.457336,437.165466 
	C377.960480,437.080566 377.463593,436.995667 376.126465,436.693787 
	C375.405884,437.960968 374.078979,439.218964 374.059631,440.496735 
	C373.889069,451.768494 373.958801,463.043762 373.939178,474.317993 
	C373.933533,477.563416 375.413940,478.827881 379.374481,477.874573 
	C379.374481,474.686188 379.433472,471.416199 379.363495,468.148926 
	C379.147766,458.075623 378.882690,448.003357 378.457336,437.165466 
z"/>
<path fill="#F0DEF1" opacity="1.000000" stroke="none" 
	d="
M346.924957,428.117310 
	C356.325409,430.281342 358.558197,433.700806 358.243652,446.256378 
	C358.081726,452.718292 357.532928,459.171051 357.120605,465.625488 
	C357.057770,466.608978 357.137543,467.961853 356.556274,468.494659 
	C352.036499,472.637421 354.231293,476.737762 356.235291,481.026093 
	C356.971344,482.601135 357.012360,484.501007 357.354370,486.174316 
	C351.213409,488.760010 348.998871,487.646271 347.519196,481.716888 
	C347.112946,480.089020 346.380768,478.542480 345.798157,476.958649 
	C345.304901,477.014069 344.811646,477.069489 344.318420,477.124908 
	C344.012146,480.104431 343.705902,483.083954 343.318237,486.855286 
	C341.045563,486.855286 338.636658,486.855286 335.752808,486.344360 
	C335.276978,481.530090 335.205078,477.225342 335.287994,472.923615 
	C335.574921,458.036591 335.915802,443.150604 336.236145,428.264221 
	C336.236145,428.264221 336.018433,428.039856 336.574097,428.196899 
	C340.394836,428.275085 343.659912,428.196198 346.924957,428.117310 
M349.691895,444.353180 
	C349.728302,443.356232 350.171265,442.089142 349.722870,441.414368 
	C348.508362,439.586670 347.079224,436.808289 345.438446,436.584717 
	C342.016663,436.118469 343.218353,439.389404 343.189178,441.301239 
	C343.164642,442.905670 343.570099,444.516663 343.726227,446.672577 
	C343.743927,447.039001 343.761627,447.405426 343.365906,448.508881 
	C343.489288,453.075012 343.612671,457.641113 343.685822,462.744507 
	C343.706482,463.103180 343.727173,463.461884 343.373413,464.264557 
	C343.833099,464.895844 344.292816,465.527100 345.591370,466.187195 
	C348.620026,465.561584 349.698425,463.779724 349.535706,460.654083 
	C349.267426,455.502075 349.404724,450.328888 349.691895,444.353180 
z"/>
<path fill="#F3E5F4" opacity="1.000000" stroke="none" 
	d="
M205.310913,486.839844 
	C206.379196,477.701019 207.731018,468.785797 209.072845,459.869080 
	C209.345001,458.060577 209.576218,456.245911 209.831543,454.434814 
	C211.092026,445.494537 212.354248,436.554504 213.659210,427.307068 
	C216.232040,427.443695 218.549744,427.432098 220.828949,427.722565 
	C223.551300,428.069489 224.779938,429.371887 225.264648,432.521820 
	C226.997116,443.780334 229.387115,454.936157 231.415009,466.151337 
	C232.605240,472.733826 233.580994,479.355042 234.659225,485.996002 
	C228.418060,488.184052 226.637482,487.208710 225.558731,480.984558 
	C224.939102,477.409454 224.466248,473.767731 223.362885,470.337555 
	C222.911148,468.933167 220.781708,466.929901 219.748184,467.109802 
	C218.067886,467.402405 215.609695,469.060913 215.327927,470.503754 
	C214.313675,475.697510 214.072601,481.042206 213.465469,487.062897 
	C210.983612,487.062897 208.287277,487.062897 205.310913,486.839844 
M217.608658,451.807404 
	C217.701126,453.767700 217.793610,455.727997 217.906174,458.113708 
	C221.652878,459.314484 223.099152,458.376038 222.206299,454.109558 
	C221.306351,449.809174 220.056168,445.582062 218.959442,441.322876 
	C218.732880,441.348785 218.506302,441.374695 218.279724,441.400635 
	C218.021225,444.614441 217.762726,447.828217 217.608658,451.807404 
z"/>
<path fill="#F8F1F8" opacity="1.000000" stroke="none" 
	d="
M360.574768,315.157745 
	C360.390198,315.869507 360.205627,316.581299 359.810791,317.911194 
	C359.503815,319.370361 359.407135,320.211456 359.310455,321.052521 
	C359.226929,321.198792 359.143433,321.345032 358.777161,321.801270 
	C358.315247,322.404358 358.136108,322.697418 357.956970,322.990479 
	C357.239624,322.965942 356.522247,322.941406 355.227142,322.643738 
	C345.803986,318.206512 338.333282,312.418671 333.253845,303.919281 
	C330.724670,299.687164 328.409363,295.327240 325.997345,291.025146 
	C325.997345,291.025146 326.009064,291.002686 326.047760,290.631042 
	C325.373962,288.487762 324.661469,286.716125 323.948975,284.944489 
	C323.899353,284.510529 323.849731,284.076569 323.769470,283.049438 
	C324.030487,281.664673 324.322205,280.873047 325.109253,280.010315 
	C328.747284,280.250305 331.889984,280.561432 335.032715,280.872589 
	C335.780609,280.928619 336.528534,280.984619 337.902710,281.289429 
	C340.388245,281.987793 342.247467,282.437378 344.106689,282.886963 
	C344.952240,283.128815 345.797821,283.370636 347.208740,283.870728 
	C351.326782,286.261505 355.128113,288.072510 358.383179,290.589844 
	C366.565704,296.917847 366.715790,297.907379 363.225006,307.112213 
	C363.225006,307.112213 363.090973,307.117157 362.815216,307.350464 
	C361.884552,310.108429 361.229645,312.633087 360.574768,315.157745 
z"/>
<path fill="#F3E5F4" opacity="1.000000" stroke="none" 
	d="
M565.990784,482.083282 
	C560.346741,488.715912 552.733398,486.406006 545.298462,486.947296 
	C545.298462,467.418060 545.298462,448.272919 545.298462,428.625763 
	C551.732239,429.280548 558.764587,426.576508 563.703186,434.146118 
	C564.080322,439.384644 564.227661,443.930817 564.472473,448.471771 
	C564.552979,449.963562 564.885864,451.441742 565.103271,452.926147 
	C565.103271,452.926147 565.000000,452.997559 564.997131,453.264221 
	C565.318298,454.033142 565.642395,454.535461 565.966431,455.037750 
	C565.966431,455.037750 566.004150,455.009552 565.921143,455.476257 
	C565.888977,464.656372 565.939880,473.369843 565.990784,482.083282 
M557.391907,477.975250 
	C557.665894,472.260864 557.892090,466.543671 558.229797,460.833069 
	C558.475159,456.685211 556.298157,456.690247 552.858582,457.693573 
	C552.858582,463.725616 552.700745,469.647369 553.019958,475.543274 
	C553.070923,476.483521 555.262878,477.307831 557.391907,477.975250 
M557.206421,442.479431 
	C556.771851,440.535767 556.337341,438.592102 555.902832,436.648438 
	C555.080994,436.737152 554.259216,436.825897 553.437439,436.914612 
	C553.212341,441.112396 552.987244,445.310211 552.762146,449.508026 
	C553.585327,449.676270 554.408508,449.844543 555.231689,450.012787 
	C555.885864,447.793427 556.540039,445.574036 557.206421,442.479431 
z"/>
<path fill="#F0DEF1" opacity="1.000000" stroke="none" 
	d="
M326.848145,467.877533 
	C325.494080,471.328979 323.541992,473.743134 319.310883,473.901459 
	C315.728912,474.035522 313.918518,475.977112 314.038574,480.079132 
	C314.271362,488.034515 313.657806,488.322479 305.341217,486.626709 
	C305.341217,467.083557 305.341217,447.504578 305.341217,427.407318 
	C312.491180,428.259766 320.106110,425.866547 325.794739,433.233459 
	C326.229584,445.265503 326.538849,456.571533 326.848145,467.877533 
M313.835541,452.496521 
	C313.827911,455.992615 313.647095,459.502075 313.915283,462.976868 
	C313.998718,464.057770 315.298004,465.044769 316.040680,466.074799 
	C317.061737,465.112518 318.942383,464.173462 318.969086,463.184326 
	C319.202271,454.548309 319.103821,445.903320 319.103821,437.225494 
	C315.442444,435.687225 313.522400,436.154388 313.785065,440.517822 
	C314.004761,444.167328 313.834961,447.840302 313.835541,452.496521 
z"/>
<path fill="#F0DEF1" opacity="1.000000" stroke="none" 
	d="
M178.015335,441.014465 
	C178.012405,439.187866 177.660172,437.733093 178.079285,436.552063 
	C179.150558,433.533112 175.083313,428.036621 180.829269,427.582855 
	C190.979218,426.781250 199.521851,429.043304 200.127914,436.961151 
	C200.836182,446.213837 200.494904,455.563904 200.264404,464.863159 
	C200.168808,468.719238 198.234024,472.238037 194.260864,473.195312 
	C188.473724,474.589600 185.624878,477.469391 186.958115,483.605988 
	C187.095352,484.237610 187.030792,484.927551 186.968170,485.581665 
	C186.939377,485.882385 186.688690,486.161804 186.359497,486.795959 
	C183.958389,486.795959 181.384445,486.795959 178.017334,486.795959 
	C178.017334,471.598999 178.017334,456.554993 178.015335,441.014465 
M186.370117,457.421936 
	C186.370117,460.195923 186.370117,462.969940 186.370117,465.690491 
	C189.639893,466.543518 191.902893,466.497833 191.903885,462.727631 
	C191.905914,454.939209 192.001709,447.147278 191.753235,439.366547 
	C191.719513,438.310669 189.926453,437.310974 188.947998,436.285278 
	C188.094986,437.369232 186.555573,438.421997 186.504730,439.542358 
	C186.249405,445.165863 186.383347,450.806976 186.370117,457.421936 
z"/>
<path fill="#F3E5F4" opacity="1.000000" stroke="none" 
	d="
M434.112854,429.025360 
	C434.118744,431.052979 434.124634,433.080627 434.103760,435.985046 
	C434.163727,439.636261 434.250427,442.410675 434.337097,445.185120 
	C434.271454,454.142487 434.205811,463.099884 434.135925,472.773834 
	C434.380981,473.717346 434.630280,473.944275 434.879547,474.171204 
	C436.267822,475.415649 437.656097,476.660095 439.044312,477.904541 
	C440.090973,476.112823 442.013672,474.336487 442.045410,472.526978 
	C442.295502,458.274902 442.184265,444.016479 442.184265,429.345093 
	C443.597290,429.210602 444.837311,429.092621 446.945435,428.793243 
	C448.607819,430.103607 450.069977,431.585327 450.092590,433.088654 
	C450.308777,447.458740 450.281525,461.832489 450.324097,476.205170 
	C449.159271,481.193146 446.722137,485.279877 441.411011,486.427643 
	C436.351624,487.521027 431.659149,486.124817 428.628845,481.794983 
	C427.219666,479.781433 426.403839,476.936584 426.361542,474.450806 
	C426.109985,459.669739 426.163513,444.883453 426.427368,429.606659 
	C426.845306,428.978455 426.950409,428.842560 427.055542,428.706696 
	C428.064117,428.663574 429.072723,428.620422 430.846985,428.648926 
	C432.446075,428.822205 433.279480,428.923798 434.112854,429.025360 
z"/>
<path fill="#F0DEF1" opacity="1.000000" stroke="none" 
	d="
M574.193726,442.210449 
	C573.776794,431.022858 580.752747,428.667084 588.510193,427.524933 
	C589.907898,427.319122 591.809692,430.033447 593.366577,431.517181 
	C596.600037,434.598663 597.838135,438.353546 596.904419,443.202515 
	C594.615051,443.202515 592.316223,443.470306 590.103760,443.147125 
	C585.404663,442.460785 583.451416,445.151764 583.407837,449.027496 
	C583.341553,454.912170 584.130798,460.801666 584.268555,466.695831 
	C584.325317,469.123718 583.274963,471.591614 583.425476,473.997650 
	C583.509460,475.341522 585.023560,476.595886 585.893250,477.890594 
	C586.671570,476.661896 587.715820,475.520081 588.153564,474.180145 
	C588.591736,472.838531 588.424011,471.299011 588.540405,469.572021 
	C591.408447,469.572021 594.004028,469.572021 596.703918,469.572021 
	C597.949951,474.583618 596.834534,479.193604 593.584961,483.050751 
	C590.634155,486.553406 586.537781,487.259979 582.215454,485.962311 
	C577.627686,484.584930 574.312744,480.214355 574.249207,475.098083 
	C574.114990,464.292999 574.194214,453.485199 574.193726,442.210449 
M586.560242,439.960114 
	C586.664551,439.028870 586.768921,438.097656 586.873230,437.166382 
	C586.125916,437.197510 585.378601,437.228638 584.631287,437.259766 
	C584.819031,438.146759 585.006714,439.033783 586.560242,439.960114 
z"/>
<path fill="#F0DEF1" opacity="1.000000" stroke="none" 
	d="
M466.736084,463.996338 
	C466.884888,468.141693 466.869507,471.809418 467.306000,475.422607 
	C467.413208,476.309814 468.995850,477.018799 469.900238,477.809692 
	C470.461914,476.935486 471.384094,476.116272 471.527313,475.178162 
	C472.532623,468.592194 472.505432,468.569427 480.149475,469.894104 
	C481.332367,475.509766 479.098846,482.767181 475.471771,485.093384 
	C472.109406,487.249817 465.244415,487.154327 462.440430,483.879150 
	C460.257538,481.329376 458.463165,477.599091 458.313690,474.310822 
	C457.808380,463.192932 457.948730,452.035156 458.160034,440.898651 
	C458.322113,432.357849 463.930542,427.454620 471.936676,428.318237 
	C477.395294,428.907043 481.263062,435.666443 480.314301,443.224670 
	C478.552979,443.224670 476.752625,443.346771 474.973907,443.202179 
	C469.176086,442.730896 467.026306,444.520721 466.790588,450.530090 
	C466.621277,454.846985 466.745270,459.175354 466.736084,463.996338 
z"/>
<path fill="#F0DEF1" opacity="1.000000" stroke="none" 
	d="
M498.260010,441.985168 
	C498.262177,440.009918 498.262177,438.539001 498.262177,436.577118 
	C494.767059,436.577118 491.524261,436.577118 487.862549,436.577118 
	C487.862549,433.386017 487.862549,430.686829 487.862549,427.746399 
	C496.466614,427.746399 505.075317,427.430389 513.646729,427.859528 
	C519.191406,428.137146 516.162048,432.852081 517.159790,436.112000 
	C513.718506,436.112000 510.663818,436.112000 507.259674,436.112000 
	C507.259674,453.112549 507.259674,469.689758 507.259674,486.153229 
	C499.781677,488.545502 498.222565,487.474670 498.242065,480.475128 
	C498.277344,467.813354 498.255768,455.151398 498.260010,441.985168 
z"/>
<path fill="#F3E5F4" opacity="1.000000" stroke="none" 
	d="
M151.492401,428.311005 
	C151.492401,428.311005 151.707153,428.219238 152.243225,428.215332 
	C157.075317,428.213074 161.380936,428.051605 165.662231,428.303650 
	C167.190903,428.393585 169.818298,429.320923 169.935364,430.149719 
	C170.257339,432.429565 171.657776,435.593475 167.875778,436.778412 
	C167.504288,436.738342 167.132797,436.698303 166.295959,436.487244 
	C165.526398,436.417664 165.222198,436.519104 164.917999,436.620514 
	C163.147202,436.798676 161.376404,436.976837 159.378448,437.920288 
	C159.230042,440.868073 159.308807,443.050568 159.387558,445.233093 
	C160.439514,446.064209 161.374939,447.292969 162.568008,447.642578 
	C164.951523,448.341003 167.476242,448.557495 169.979630,449.796143 
	C171.007324,460.383728 163.029526,453.449463 159.701843,456.435455 
	C159.701843,463.325256 159.701843,470.716156 159.701843,478.093567 
	C169.792679,479.277222 169.792679,479.277222 171.154831,485.285889 
	C169.566971,485.828857 167.998032,486.761963 166.387604,486.840057 
	C161.937866,487.055908 157.470795,486.914673 152.240494,486.651245 
	C151.319855,484.585205 151.028152,482.781616 151.040634,480.980133 
	C151.162140,463.423553 151.334503,445.867340 151.492401,428.311005 
z"/>
<path fill="#F0DEF1" opacity="1.000000" stroke="none" 
	d="
M241.898056,437.163696 
	C241.896942,435.861267 241.921066,435.028046 241.890930,434.196808 
	C241.633881,427.104980 242.552917,426.438354 250.891083,428.184387 
	C250.891083,444.624359 250.891083,461.185028 250.891083,477.683807 
	C262.419434,478.704437 262.419434,478.704437 261.702026,486.590851 
	C255.330582,486.590851 248.922943,486.590851 241.898148,486.590851 
	C241.898148,470.153961 241.898148,453.893890 241.898056,437.163696 
z"/>
<path fill="#F8F1F8" opacity="1.000000" stroke="none" 
	d="
M414.934998,303.987061 
	C416.780823,299.269836 419.990509,298.925873 424.086182,301.031586 
	C430.709259,304.436768 437.371796,307.765259 445.170288,311.709015 
	C434.044739,319.653748 423.561768,324.254791 411.147461,326.026215 
	C410.007416,326.406708 409.554840,326.734863 409.102234,327.062988 
	C409.102234,327.062988 409.041931,327.018829 408.565155,326.964325 
	C403.718292,326.909821 399.348206,326.909821 394.978119,326.909821 
	C394.802765,326.483948 394.627380,326.058105 394.452026,325.632233 
	C403.248505,320.187469 410.202301,313.085815 414.934998,303.987061 
z"/>
<path fill="#F3E5F4" opacity="1.000000" stroke="none" 
	d="
M309.156921,306.044495 
	C309.156921,306.044495 309.593781,305.983276 310.008057,305.878418 
	C310.629486,305.533447 310.836700,305.293335 311.043915,305.053223 
	C311.043915,305.053223 311.002441,304.999603 311.319641,305.052856 
	C312.099121,304.750824 312.561371,304.395569 313.023621,304.040283 
	C313.023621,304.040283 313.007141,304.000000 313.381042,304.045746 
	C315.473480,303.372223 317.192017,302.652924 318.910553,301.933624 
	C319.082245,301.927399 319.253906,301.921204 320.021729,301.781006 
	C324.545624,299.283356 326.217346,302.046173 327.949432,304.821960 
	C332.983337,312.889160 338.873413,320.069397 347.808685,324.170074 
	C348.665497,324.563263 349.157410,325.751587 350.395569,327.285431 
	C346.960236,327.448090 344.405365,327.569031 341.850464,327.690002 
	C341.460907,327.547150 341.071381,327.404327 340.013855,327.086487 
	C337.209473,326.661621 335.073059,326.411774 332.936615,326.161926 
	C323.657043,322.613647 314.357635,319.115570 305.118469,315.465057 
	C303.668213,314.892029 302.491364,313.627075 301.409302,312.264771 
	C302.559143,310.963348 303.487732,310.079224 304.416321,309.195068 
	C304.416321,309.195068 304.739319,309.124634 305.111084,308.933136 
	C306.043091,308.222748 306.603363,307.703857 307.163666,307.184998 
	C307.163666,307.184998 307.052490,307.014557 307.408112,307.114502 
	C308.228119,306.824463 308.692505,306.434479 309.156921,306.044495 
z"/>
<path fill="#F0DEF1" opacity="1.000000" stroke="none" 
	d="
M268.855957,433.472504 
	C268.481354,429.732147 269.158234,427.618774 273.264679,427.649689 
	C277.084229,427.678436 277.894226,429.184692 277.855957,432.781494 
	C277.666473,450.579712 277.769653,468.381042 277.769653,486.610352 
	C274.654205,486.610352 271.953278,486.610352 268.857849,486.610352 
	C268.857849,468.819702 268.857849,451.366516 268.855957,433.472504 
z"/>
<path fill="#692F76" opacity="1.000000" stroke="none" 
	d="
M151.059784,428.266541 
	C151.334503,445.867340 151.162140,463.423553 151.040634,480.980133 
	C151.028152,482.781616 151.319855,484.585205 151.778610,486.681519 
	C150.885666,489.317963 149.545395,490.010834 148.864578,486.819397 
	C148.464798,484.945404 148.911835,482.901031 148.891815,480.934174 
	C148.756104,467.601013 148.604172,454.267975 148.421967,440.935394 
	C148.414490,440.388214 148.053085,439.845917 147.856567,439.301331 
	C147.415115,439.293640 146.973648,439.285950 146.532181,439.278229 
	C146.238068,441.521973 145.915161,443.762390 145.655624,446.010132 
	C145.055130,451.210663 144.485321,456.414703 143.622147,461.875427 
	C143.306686,452.879517 143.244034,443.625488 143.247208,434.371460 
	C143.249420,427.890442 143.289551,427.890442 136.417786,427.984863 
	C139.950272,424.739471 144.205994,426.030609 148.437271,427.226440 
	C149.200119,427.441986 149.898834,427.884430 151.059784,428.266541 
z"/>
<path fill="#341B3F" opacity="1.000000" stroke="none" 
	d="
M342.053833,328.001648 
	C344.405365,327.569031 346.960236,327.448090 350.395569,327.285431 
	C349.157410,325.751587 348.665497,324.563263 347.808685,324.170074 
	C338.873413,320.069397 332.983337,312.889160 327.949432,304.821960 
	C326.217346,302.046173 324.545624,299.283356 320.232147,301.632324 
	C322.087219,300.524963 324.328033,299.432220 326.568878,298.339447 
	C326.839722,298.768250 327.110565,299.197021 327.381439,299.625793 
	C326.870697,297.030182 326.359924,294.434601 325.923279,291.432068 
	C328.409363,295.327240 330.724670,299.687164 333.253845,303.919281 
	C338.333282,312.418671 345.803986,318.206512 354.867249,322.636993 
	C353.771423,329.503418 351.765137,330.349518 342.053833,328.001648 
z"/>
<path fill="#F0DEF1" opacity="1.000000" stroke="none" 
	d="
M333.931213,268.883331 
	C334.520844,265.543762 335.110443,262.204193 335.797852,258.310699 
	C339.804291,260.693512 342.503815,262.219055 345.117554,263.879639 
	C347.098358,265.138092 348.039093,273.996338 345.751740,275.632294 
	C344.228363,276.721832 341.166626,275.698730 338.798523,275.543213 
	C338.169006,275.501892 337.558350,275.173157 336.310120,274.774750 
	C335.097870,272.676514 334.514557,270.779938 333.931213,268.883331 
z"/>
<path fill="#341B3F" opacity="1.000000" stroke="none" 
	d="
M414.553772,303.973938 
	C410.202301,313.085815 403.248505,320.187469 394.452026,325.632233 
	C394.627380,326.058105 394.802765,326.483948 394.978119,326.909821 
	C399.348206,326.909821 403.718292,326.909821 408.547607,326.997284 
	C404.035309,327.677673 399.072571,328.485168 394.085205,328.688385 
	C393.047485,328.730652 391.918549,326.535370 390.177948,324.671112 
	C388.524689,324.979340 385.610626,325.522552 382.377014,325.787445 
	C382.057434,325.509094 382.263367,325.120850 382.263367,325.120850 
	C385.679962,323.786713 389.096558,322.452576 392.967468,320.858795 
	C393.720093,320.488892 393.866119,320.274719 393.859863,319.956726 
	C394.178955,319.853180 394.498047,319.749664 395.289459,319.363983 
	C403.073181,313.516449 409.092804,306.961609 411.932281,297.970856 
	C411.932281,297.970856 412.342834,297.712646 412.579529,297.657959 
	C412.666443,299.060577 412.298798,300.542175 412.457916,301.964905 
	C412.538452,302.685120 413.570648,303.298920 414.553772,303.973938 
z"/>
<path fill="#692F76" opacity="1.000000" stroke="none" 
	d="
M327.174866,467.672974 
	C326.538849,456.571533 326.229584,445.265503 325.934174,433.546997 
	C329.108582,431.500153 332.269135,429.865784 335.832916,428.247803 
	C335.915802,443.150604 335.574921,458.036591 335.287994,472.923615 
	C335.205078,477.225342 335.276978,481.530090 335.333069,486.284821 
	C334.946533,485.136475 334.152100,483.544128 334.118469,481.935852 
	C333.829803,468.133392 333.691956,454.327850 333.460938,440.524017 
	C333.442902,439.446869 333.060760,438.375824 332.847839,437.301941 
	C332.270416,437.141815 331.692993,436.981720 331.115570,436.821625 
	C330.300110,439.100922 328.954590,441.337250 328.765686,443.667328 
	C328.123962,451.583191 327.890778,459.532135 327.174866,467.672974 
z"/>
<path fill="#F0DEF1" opacity="1.000000" stroke="none" 
	d="
M390.882568,268.648071 
	C388.144012,263.589325 385.502258,258.156677 382.815277,252.746521 
	C381.932007,250.968033 381.156250,249.071426 379.946960,247.530472 
	C373.817566,239.720108 367.974243,239.912170 361.982056,247.950256 
	C361.410919,248.716354 360.598938,249.302887 359.566345,250.013351 
	C362.376221,245.638184 365.270020,241.012939 368.751648,236.883286 
	C370.928864,234.300827 373.861938,233.789490 375.924225,237.541016 
	C380.354034,245.599411 384.869232,253.613129 389.140503,261.754761 
	C390.166748,263.710907 390.376495,266.095398 390.882568,268.648071 
z"/>
<path fill="#341B3F" opacity="1.000000" stroke="none" 
	d="
M363.579468,307.086121 
	C366.715790,297.907379 366.565704,296.917847 358.383179,290.589844 
	C355.128113,288.072510 351.326782,286.261505 347.539886,283.878235 
	C348.066650,282.454102 349.293884,281.358063 349.503784,280.093201 
	C350.215637,275.803375 350.567657,271.453857 351.437775,267.020752 
	C351.819611,267.301697 351.820831,267.689087 351.608795,268.732513 
	C350.135315,280.038635 350.135315,280.038635 357.876984,283.153748 
	C357.876984,283.153748 357.984039,283.016022 358.023682,283.393982 
	C361.728516,287.028748 365.393738,290.285553 369.058960,293.542328 
	C368.608429,295.212463 368.307861,296.941986 367.674713,298.539734 
	C366.532745,301.421417 365.191772,304.224243 363.579468,307.086121 
z"/>
<path fill="#F0DEF1" opacity="1.000000" stroke="none" 
	d="
M395.065979,267.726624 
	C395.036652,267.119415 395.007324,266.512207 395.338959,265.512878 
	C396.851654,264.467712 397.996887,263.802887 399.156189,263.163635 
	C405.763794,259.520203 406.860382,260.027161 408.055115,267.263855 
	C407.979065,268.894775 407.903015,270.525726 407.674957,272.790527 
	C406.940247,274.056854 406.357574,274.689270 405.774902,275.321686 
	C403.671478,275.634857 401.568085,275.947998 398.904541,276.351562 
	C397.849121,275.050232 397.373993,273.650909 396.853119,272.268860 
	C396.279327,270.746521 395.663483,269.240021 395.065979,267.726624 
z"/>
<path fill="#692F76" opacity="1.000000" stroke="none" 
	d="
M450.649384,476.088867 
	C450.281525,461.832489 450.308777,447.458740 450.092590,433.088654 
	C450.069977,431.585327 448.607819,430.103607 447.356567,428.665924 
	C448.614685,428.385986 450.695465,427.285492 451.962769,427.890137 
	C454.086182,428.903107 456.307373,430.721588 454.002747,433.804352 
	C453.253082,434.807129 452.688324,436.211975 452.658661,437.447815 
	C452.395203,448.416046 452.319855,459.388794 452.058685,470.357086 
	C452.013916,472.236450 451.351654,474.101105 450.649384,476.088867 
z"/>
<path fill="#341B3F" opacity="1.000000" stroke="none" 
	d="
M604.989624,487.509033 
	C607.206116,487.050415 609.518738,486.939880 612.561340,486.794434 
	C612.561340,477.574554 612.561340,468.398041 612.561340,459.221497 
	C613.243347,459.149872 613.925415,459.078217 614.607422,459.006592 
	C615.912598,468.169861 617.217773,477.333160 618.809692,486.800781 
	C618.770447,487.638489 618.424927,488.646210 618.121338,488.633789 
	C613.772827,488.455566 609.429932,488.139771 604.989624,487.509033 
z"/>
<path fill="#692F76" opacity="1.000000" stroke="none" 
	d="
M171.429871,484.987366 
	C169.792679,479.277222 169.792679,479.277222 159.701843,478.093567 
	C159.701843,470.716156 159.701843,463.325256 159.701843,456.435455 
	C163.029526,453.449463 171.007324,460.383728 170.116882,450.173706 
	C170.971420,451.861786 171.725662,453.995392 172.479904,456.128967 
	C170.866272,456.636536 169.226807,457.639618 167.643921,457.557098 
	C163.201736,457.325592 160.999771,458.758575 161.691818,463.548004 
	C161.949097,465.328461 161.697403,467.191986 161.595261,469.013000 
	C161.351303,473.363007 161.034561,476.975403 167.671219,476.736176 
	C172.099060,476.576538 172.459213,480.917114 171.429871,484.987366 
z"/>
<path fill="#692F76" opacity="1.000000" stroke="none" 
	d="
M135.070007,435.851196 
	C135.392563,446.321503 135.392563,456.876099 135.392563,467.430725 
	C135.032394,467.421692 134.672211,467.412689 134.312042,467.403687 
	C133.001038,459.156921 131.690048,450.910156 130.455078,442.240936 
	C131.936554,439.857483 133.341995,437.896454 135.070007,435.851196 
z"/>
<path fill="#692F76" opacity="1.000000" stroke="none" 
	d="
M623.224548,428.811859 
	C623.595032,441.870636 623.595032,455.087463 623.595032,468.304260 
	C623.348511,468.281403 623.101990,468.258575 622.855469,468.235718 
	C621.574158,459.769470 620.292786,451.303253 619.081665,442.417847 
	C620.084167,440.554413 621.477295,439.218445 621.847595,437.642242 
	C622.508667,434.827942 622.552307,431.868622 623.224548,428.811859 
z"/>
<path fill="#F0DEF1" opacity="1.000000" stroke="none" 
	d="
M122.059280,487.345825 
	C122.307693,482.358734 122.893883,477.673065 122.971992,472.978973 
	C123.132217,463.349457 123.020111,453.715424 123.625557,444.008789 
	C125.070061,450.460541 126.514557,456.912262 127.517670,463.507385 
	C126.326080,464.236359 124.918289,464.830261 124.925598,465.406250 
	C125.016426,472.572296 125.312866,479.735718 125.556458,486.899841 
	C124.426666,487.147705 123.296867,487.395569 122.059280,487.345825 
z"/>
<path fill="#F0DEF1" opacity="1.000000" stroke="none" 
	d="
M376.061401,296.302185 
	C373.207794,302.862000 370.346069,309.418304 367.507965,315.984833 
	C366.986572,317.191162 366.362976,318.402161 366.126617,319.674194 
	C365.209717,324.608795 366.361786,325.950714 371.388184,325.981201 
	C373.537720,325.994232 375.687775,325.913788 378.281158,325.889465 
	C373.748169,326.601685 368.771606,327.300232 362.348053,328.201874 
	C365.789429,316.486877 368.063171,305.857330 375.211365,296.612915 
	C375.590149,296.346436 376.061401,296.302185 376.061401,296.302185 
z"/>
<path fill="#692F76" opacity="1.000000" stroke="none" 
	d="
M566.310547,481.923157 
	C565.939880,473.369843 565.888977,464.656372 565.897705,455.474884 
	C570.492188,457.961182 571.044495,465.784729 569.529236,471.164368 
	C568.874939,473.487244 569.272461,476.090240 568.784119,478.482697 
	C568.541138,479.673096 567.377441,480.675598 566.310547,481.923157 
z"/>
<path fill="#341B3F" opacity="1.000000" stroke="none" 
	d="
M125.922073,487.013031 
	C125.312866,479.735718 125.016426,472.572296 124.925598,465.406250 
	C124.918289,464.830261 126.326080,464.236359 127.467514,463.948975 
	C128.734726,471.631775 129.610718,479.016388 130.741577,486.714111 
	C129.426865,487.060242 127.857277,487.093231 125.922073,487.013031 
z"/>
<path fill="#692F76" opacity="1.000000" stroke="none" 
	d="
M168.175491,436.943909 
	C171.657776,435.593475 170.257339,432.429565 169.935364,430.149719 
	C169.818298,429.320923 167.190903,428.393585 165.662231,428.303650 
	C161.380936,428.051605 157.075317,428.213074 152.302094,428.114471 
	C152.800552,427.437866 153.761826,426.386810 154.754242,426.356537 
	C160.354446,426.185608 165.964096,426.179779 171.565552,426.318726 
	C172.672363,426.346191 174.753387,427.432434 174.700348,427.725525 
	C174.082169,431.141968 173.185257,434.514038 172.128662,437.823334 
	C172.084946,437.960236 169.745239,437.364044 168.175491,436.943909 
z"/>
<path fill="#692F76" opacity="1.000000" stroke="none" 
	d="
M333.657959,269.092834 
	C334.514557,270.779938 335.097870,272.676514 335.961731,274.838867 
	C335.802368,276.807617 335.362396,278.510590 334.977570,280.543091 
	C331.889984,280.561432 328.747284,280.250305 325.152161,280.004150 
	C324.699768,280.069122 324.577301,280.020172 324.313324,279.950684 
	C323.941467,279.734589 323.833618,279.588013 323.725769,279.441467 
	C323.725769,279.441467 323.639526,278.985474 323.993469,278.785767 
	C324.664856,278.495636 324.862732,278.290100 324.940948,277.969360 
	C327.755554,275.080353 330.570129,272.191345 333.657959,269.092834 
z"/>
<path fill="#F0DEF1" opacity="1.000000" stroke="none" 
	d="
M409.566833,281.096313 
	C405.219543,282.348175 400.222595,282.957214 395.712738,284.774780 
	C390.187561,287.001495 385.070129,290.239746 379.471985,292.737366 
	C379.412537,291.936584 379.657532,291.439117 379.902527,290.941620 
	C387.934143,282.596130 398.474609,281.619324 409.566833,281.096313 
z"/>
<path fill="#F0DEF1" opacity="1.000000" stroke="none" 
	d="
M369.413940,293.604248 
	C365.393738,290.285553 361.728516,287.028748 357.958649,283.452148 
	C361.072235,285.103363 364.493896,286.815338 367.441986,289.130432 
	C369.657074,290.869873 370.816620,291.436768 372.936859,288.890259 
	C374.606873,286.884552 377.331940,285.757324 379.964111,284.433289 
	C380.339844,284.626678 380.427612,285.084625 380.427612,285.084625 
	C379.040955,286.157166 377.654327,287.229736 375.792755,288.653809 
	C374.144165,290.314301 372.970551,291.623322 371.796906,292.932312 
	C371.120941,293.176941 370.444946,293.421539 369.413940,293.604248 
z"/>
<path fill="#692F76" opacity="1.000000" stroke="none" 
	d="
M408.453400,267.174744 
	C406.860382,260.027161 405.763794,259.520203 399.156189,263.163635 
	C397.996887,263.802887 396.851654,264.467712 395.336853,265.208618 
	C395.233978,264.389160 395.208710,263.120575 395.810211,262.645355 
	C397.334503,261.441132 399.040039,260.300537 400.859009,259.678406 
	C402.982727,258.952087 405.918701,257.749908 407.411591,258.621765 
	C410.545013,260.451752 410.905762,263.814850 408.453400,267.174744 
z"/>
<path fill="#692F76" opacity="1.000000" stroke="none" 
	d="
M632.161682,441.713318 
	C631.892334,439.570282 631.775940,437.119385 631.820007,434.671356 
	C631.937195,428.179138 631.964722,428.179626 625.105042,427.731567 
	C630.387573,424.612457 633.773376,426.258850 633.733521,432.320312 
	C633.713623,435.351929 632.862793,438.378082 632.161682,441.713318 
z"/>
<path fill="#692F76" opacity="1.000000" stroke="none" 
	d="
M130.304077,435.687805 
	C129.915756,434.863464 129.620605,433.736816 129.594711,432.604034 
	C129.519211,429.300537 127.991425,427.689606 124.613304,428.026306 
	C121.689842,428.317657 118.765137,428.596558 115.491524,429.127777 
	C115.736809,428.312347 116.147820,426.547791 116.964554,426.334137 
	C118.662209,425.890015 120.574715,426.289459 122.399216,426.304199 
	C130.913177,426.372955 130.913208,426.368317 130.304077,435.687805 
z"/>
<path fill="#692F76" opacity="1.000000" stroke="none" 
	d="
M627.874084,487.790588 
	C630.428040,487.622131 631.201660,486.376831 631.177124,483.649750 
	C631.087158,473.612274 631.281433,463.572235 631.576904,453.162506 
	C631.905762,463.737274 632.038452,474.682617 632.139587,485.628235 
	C632.167786,488.676971 630.795410,489.561768 627.874084,487.790588 
z"/>
<path fill="#F0DEF1" opacity="1.000000" stroke="none" 
	d="
M358.837463,250.516541 
	C357.007629,255.773392 354.919006,261.228546 352.528992,266.865417 
	C354.344635,261.603027 356.461670,256.158936 358.837463,250.516541 
z"/>
<path fill="#692F76" opacity="1.000000" stroke="none" 
	d="
M434.480835,429.044922 
	C433.279480,428.923798 432.446075,428.822205 431.218323,428.575012 
	C433.019135,427.814056 435.367279,426.468750 437.346649,426.883453 
	C438.376190,427.099152 438.754761,430.421906 439.401428,432.267059 
	C437.644714,431.031281 436.246765,430.047852 434.480835,429.044922 
z"/>
<path fill="#692F76" opacity="1.000000" stroke="none" 
	d="
M159.719498,445.147003 
	C159.308807,443.050568 159.230042,440.868073 159.298401,438.239655 
	C161.003052,439.318756 162.560608,440.843719 164.118164,442.368713 
	C162.762589,443.266113 161.407013,444.163513 159.719498,445.147003 
z"/>
<path fill="#692F76" opacity="1.000000" stroke="none" 
	d="
M394.779388,268.023315 
	C395.663483,269.240021 396.279327,270.746521 396.853119,272.268860 
	C397.373993,273.650909 397.849121,275.050232 398.676147,276.616577 
	C396.574493,277.929352 394.921936,277.353180 394.479401,274.753601 
	C394.124756,272.670227 394.462402,270.468964 394.779388,268.023315 
z"/>
<path fill="#692F76" opacity="1.000000" stroke="none" 
	d="
M405.826233,275.680603 
	C406.357574,274.689270 406.940247,274.056854 407.755676,273.192688 
	C409.582092,273.876892 411.175812,274.792786 412.769501,275.708710 
	C411.491425,276.329315 410.252380,277.304321 408.922058,277.450928 
	C407.970642,277.555786 406.896759,276.549866 405.826233,275.680603 
z"/>
<path fill="#692F76" opacity="1.000000" stroke="none" 
	d="
M565.175293,452.515594 
	C564.885864,451.441742 564.552979,449.963562 564.472473,448.471771 
	C564.227661,443.930817 564.080322,439.384644 563.894897,434.421509 
	C564.507996,438.569061 565.203979,443.126923 565.685486,447.707306 
	C565.836304,449.141998 565.409668,450.637421 565.175293,452.515594 
z"/>
<path fill="#F0DEF1" opacity="1.000000" stroke="none" 
	d="
M381.339081,283.927887 
	C384.212799,281.655182 387.470886,279.430145 391.089478,277.120911 
	C389.595032,281.294159 385.734833,282.740845 381.339081,283.927887 
z"/>
<path fill="#341B3F" opacity="1.000000" stroke="none" 
	d="
M372.208191,292.982910 
	C372.970551,291.623322 374.144165,290.314301 375.649353,288.948792 
	C377.038147,289.569153 378.095367,290.246033 379.527588,290.932251 
	C379.657532,291.439117 379.412537,291.936584 379.103699,292.727234 
	C378.750488,293.188019 378.461182,293.355621 377.790955,293.820801 
	C377.003601,294.773743 376.597168,295.429077 376.190735,296.084412 
	C376.190704,296.084412 376.013214,296.126312 376.037292,296.214233 
	C376.061401,296.302185 375.590149,296.346436 375.354248,296.325256 
	C374.285400,295.213867 373.452454,294.123657 372.208191,292.982910 
z"/>
<path fill="#692F76" opacity="1.000000" stroke="none" 
	d="
M346.845367,427.735229 
	C343.659912,428.196198 340.394836,428.275085 336.691528,428.299988 
	C339.462677,424.477966 343.131561,426.119690 346.845367,427.735229 
z"/>
<path fill="#692F76" opacity="1.000000" stroke="none" 
	d="
M434.647430,445.059235 
	C434.250427,442.410675 434.163727,439.636261 434.166687,436.414886 
	C437.012238,438.759094 436.437866,441.810791 434.647430,445.059235 
z"/>
<path fill="#341B3F" opacity="1.000000" stroke="none" 
	d="
M360.916443,315.065002 
	C361.229645,312.633087 361.884552,310.108429 362.841064,307.412354 
	C362.514496,309.818054 361.886322,312.395142 360.916443,315.065002 
z"/>
<path fill="#F0DEF1" opacity="1.000000" stroke="none" 
	d="
M416.386902,287.978241 
	C416.033051,286.056183 415.992767,283.925415 415.940125,281.337646 
	C418.246307,282.606812 418.246307,282.606812 416.386902,287.978241 
z"/>
<path fill="#692F76" opacity="1.000000" stroke="none" 
	d="
M135.601807,427.965393 
	C135.859726,429.077301 135.772003,430.190704 135.604309,431.721130 
	C131.974213,430.970215 132.425797,429.545013 135.601807,427.965393 
z"/>
<path fill="#341B3F" opacity="1.000000" stroke="none" 
	d="
M333.056427,326.503723 
	C335.073059,326.411774 337.209473,326.661621 339.700623,327.116364 
	C337.762329,327.162689 335.469269,327.004089 333.056427,326.503723 
z"/>
<path fill="#692F76" opacity="1.000000" stroke="none" 
	d="
M344.048767,282.545105 
	C342.247467,282.437378 340.388245,281.987793 338.278625,281.291595 
	C340.015808,281.431091 342.003326,281.817169 344.048767,282.545105 
z"/>
<path fill="#F0DEF1" opacity="1.000000" stroke="none" 
	d="
M413.204529,295.122955 
	C411.084167,293.055328 412.260468,291.936371 414.721741,291.040039 
	C415.065582,291.431335 415.054260,291.867554 414.804321,292.817719 
	C414.112000,293.928741 413.658264,294.525848 413.204529,295.122955 
z"/>
<path fill="#341B3F" opacity="1.000000" stroke="none" 
	d="
M318.511658,301.868011 
	C317.192017,302.652924 315.473480,303.372223 313.394684,304.064331 
	C314.727203,303.292236 316.420013,302.547302 318.511658,301.868011 
z"/>
<path fill="#341B3F" opacity="1.000000" stroke="none" 
	d="
M413.169250,295.449646 
	C413.658264,294.525848 414.112000,293.928741 414.785828,293.147888 
	C414.560150,294.298157 414.114410,295.632263 413.349854,297.013184 
	C413.065399,296.632111 413.099701,296.204224 413.169250,295.449646 
z"/>
<path fill="#341B3F" opacity="1.000000" stroke="none" 
	d="
M323.757141,285.169128 
	C324.661469,286.716125 325.373962,288.487762 326.037537,290.623566 
	C325.180847,289.123077 324.373077,287.258453 323.757141,285.169128 
z"/>
<path fill="#F0DEF1" opacity="1.000000" stroke="none" 
	d="
M391.631165,275.833954 
	C391.158539,274.913666 390.812866,273.700897 390.732666,272.243286 
	C391.251465,273.179474 391.504791,274.360474 391.631165,275.833954 
z"/>
<path fill="#692F76" opacity="1.000000" stroke="none" 
	d="
M142.945312,486.748901 
	C142.696381,485.923615 142.777725,485.186066 143.000580,484.100220 
	C143.878860,484.492035 144.615631,485.232086 145.352417,485.972168 
	C144.660141,486.260315 143.967850,486.548462 142.945312,486.748901 
z"/>
<path fill="#341B3F" opacity="1.000000" stroke="none" 
	d="
M304.046753,309.146118 
	C303.487732,310.079224 302.559143,310.963348 301.352051,312.017029 
	C299.294617,308.926270 301.942627,309.396606 304.046753,309.146118 
z"/>
<path fill="#692F76" opacity="1.000000" stroke="none" 
	d="
M143.327606,470.739441 
	C143.071396,469.280914 143.021133,467.537872 143.123230,465.386200 
	C143.361572,466.803345 143.447571,468.629150 143.327606,470.739441 
z"/>
<path fill="#341B3F" opacity="1.000000" stroke="none" 
	d="
M324.577301,280.020172 
	C324.577301,280.020172 324.699768,280.069122 324.656860,280.075287 
	C324.322205,280.873047 324.030487,281.664673 323.637909,282.746521 
	C323.385376,282.017883 323.233734,280.999054 323.555420,279.889099 
	C324.211609,279.872101 324.394470,279.946136 324.577301,280.020172 
z"/>
<path fill="#692F76" opacity="1.000000" stroke="none" 
	d="
M143.252838,481.871613 
	C142.954651,481.294128 142.853287,480.496460 142.898834,479.317200 
	C143.180389,479.840881 143.315033,480.746124 143.252838,481.871613 
z"/>
<path fill="#341B3F" opacity="1.000000" stroke="none" 
	d="
M359.571167,320.843506 
	C359.407135,320.211456 359.503815,319.370361 359.818787,318.282288 
	C359.968719,318.901703 359.900299,319.768066 359.571167,320.843506 
z"/>
<path fill="#341B3F" opacity="1.000000" stroke="none" 
	d="
M306.841675,307.128662 
	C306.603363,307.703857 306.043091,308.222748 305.189636,308.787720 
	C305.437531,308.246613 305.978607,307.659485 306.841675,307.128662 
z"/>
<path fill="#341B3F" opacity="1.000000" stroke="none" 
	d="
M312.715118,303.985046 
	C312.561371,304.395569 312.099121,304.750824 311.337952,305.080322 
	C311.494934,304.679626 311.950775,304.304718 312.715118,303.985046 
z"/>
<path fill="#692F76" opacity="1.000000" stroke="none" 
	d="
M566.049927,454.725098 
	C565.642395,454.535461 565.318298,454.033142 565.048462,453.226868 
	C565.446228,453.419434 565.789795,453.915924 566.049927,454.725098 
z"/>
<path fill="#341B3F" opacity="1.000000" stroke="none" 
	d="
M308.828125,306.002136 
	C308.692505,306.434479 308.228119,306.824463 307.447845,307.208191 
	C307.587738,306.787842 308.043549,306.373810 308.828125,306.002136 
z"/>
<path fill="#F0DEF1" opacity="1.000000" stroke="none" 
	d="
M381.954590,325.063385 
	C382.263367,325.120850 382.057434,325.509094 381.946045,325.698456 
	C381.421082,325.890320 381.007507,325.892822 380.295410,325.808899 
	C380.546539,325.483612 381.096191,325.244751 381.954590,325.063385 
z"/>
<path fill="#341B3F" opacity="1.000000" stroke="none" 
	d="
M409.390747,327.120941 
	C409.554840,326.734863 410.007416,326.406708 410.741699,326.123657 
	C410.575348,326.505463 410.127289,326.842163 409.390747,327.120941 
z"/>
<path fill="#692F76" opacity="1.000000" stroke="none" 
	d="
M130.348785,438.913513 
	C130.104156,438.830292 130.020142,438.663422 130.040375,438.236877 
	C130.266205,438.261475 130.387802,438.545654 130.348785,438.913513 
z"/>
<path fill="#341B3F" opacity="1.000000" stroke="none" 
	d="
M310.798096,305.019531 
	C310.836700,305.293335 310.629486,305.533447 310.173279,305.732330 
	C309.976593,305.316162 310.185944,305.081085 310.798096,305.019531 
z"/>
<path fill="#341B3F" opacity="1.000000" stroke="none" 
	d="
M380.627441,285.080688 
	C380.427612,285.084625 380.339844,284.626678 380.328186,284.393799 
	C380.316498,284.160919 380.735016,284.210083 380.924133,284.303101 
	C381.206665,284.702179 381.111328,284.929077 380.627441,285.080688 
z"/>
<path fill="#692F76" opacity="1.000000" stroke="none" 
	d="
M165.107666,436.782349 
	C165.222198,436.519104 165.526398,436.417664 166.015640,436.497681 
	C166.200684,436.679138 165.795059,436.968536 165.795059,436.968536 
	C165.795059,436.968536 165.297348,436.944214 165.107666,436.782349 
z"/>
<path fill="#F0DEF1" opacity="1.000000" stroke="none" 
	d="
M415.299591,280.608795 
	C415.148743,280.908325 414.825806,280.944214 414.016602,280.925415 
	C414.062744,280.695526 414.595123,280.520325 415.299591,280.608795 
z"/>
<path fill="#341B3F" opacity="1.000000" stroke="none" 
	d="
M358.247498,322.980469 
	C358.136108,322.697418 358.315247,322.404358 358.750610,322.052521 
	C358.850555,322.319305 358.694305,322.644867 358.247498,322.980469 
z"/>
<path fill="#692F76" opacity="1.000000" stroke="none" 
	d="
M434.932770,473.918945 
	C434.630280,473.944275 434.380981,473.717346 434.221191,473.234131 
	C434.535767,473.207489 434.760864,473.437073 434.932770,473.918945 
z"/>
<path fill="#692F76" opacity="1.000000" stroke="none" 
	d="
M426.924194,428.563568 
	C426.950409,428.842560 426.845306,428.978455 426.485687,429.153503 
	C426.418427,428.935211 426.605621,428.677826 426.924194,428.563568 
z"/>
<path fill="#341B3F" opacity="1.000000" stroke="none" 
	d="
M324.729614,278.000977 
	C324.862732,278.290100 324.664856,278.495636 324.123718,278.593689 
	C324.038177,278.337952 324.244263,278.148376 324.729614,278.000977 
z"/>
<path fill="#F8F1F8" opacity="1.000000" stroke="none" 
	d="
M324.313324,279.950684 
	C324.394470,279.946136 324.211609,279.872101 323.828308,279.582062 
	C323.627838,279.366089 323.691620,279.408722 323.708679,279.425110 
	C323.833618,279.588013 323.941467,279.734589 324.313324,279.950684 
z"/>
<path fill="#F0DEF1" opacity="1.000000" stroke="none" 
	d="
M411.586182,298.014648 
	C409.092804,306.961609 403.073181,313.516449 395.421265,319.143738 
	C395.095032,318.877808 394.977631,318.445435 395.142792,318.237335 
	C400.491760,311.497711 405.867950,304.779694 411.586182,298.014648 
z"/>
<path fill="#F0DEF1" opacity="1.000000" stroke="none" 
	d="
M376.498383,296.029175 
	C376.597168,295.429077 377.003601,294.773743 377.708435,294.066071 
	C377.606537,294.667114 377.206268,295.320496 376.498383,296.029175 
z"/>
<path fill="#F0DEF1" opacity="1.000000" stroke="none" 
	d="
M393.676025,319.986847 
	C393.866119,320.274719 393.720093,320.488892 393.216370,320.578552 
	C393.083588,320.299561 393.243988,320.119232 393.676025,319.986847 
z"/>
<path fill="#F0DEF1" opacity="1.000000" stroke="none" 
	d="
M357.890869,282.793823 
	C350.135315,280.038635 350.135315,280.038635 351.634521,269.027954 
	C350.850311,274.585236 353.857941,278.737213 357.890869,282.793823 
z"/>
<path fill="#000000" opacity="1.000000" stroke="none" 
	d="
M407.468018,437.008972 
	C408.657288,440.506104 409.987885,443.808472 410.114014,447.156189 
	C410.432343,455.605408 410.102112,464.076843 410.247314,472.535675 
	C410.317993,476.654572 408.564941,478.309265 403.856720,477.832214 
	C403.856720,472.934021 403.857300,468.021820 403.856628,463.109619 
	C403.855560,455.477783 403.900940,447.845428 403.823853,440.214355 
	C403.800232,437.874725 404.113312,436.177917 407.468018,437.008972 
z"/>
<path fill="#341B3F" opacity="1.000000" stroke="none" 
	d="
M378.636780,437.930725 
	C378.882690,448.003357 379.147766,458.075623 379.363495,468.148926 
	C379.433472,471.416199 379.374481,474.686188 379.374481,477.874573 
	C375.413940,478.827881 373.933533,477.563416 373.939178,474.317993 
	C373.958801,463.043762 373.889069,451.768494 374.059631,440.496735 
	C374.078979,439.218964 375.405884,437.960968 376.736450,437.086975 
	C377.776520,437.630341 378.206635,437.780518 378.636780,437.930725 
M375.998322,472.689148 
	C376.438812,473.259064 376.879272,473.828979 377.480225,474.606506 
	C377.480225,462.919281 377.480225,451.663483 377.480225,440.407684 
	C376.962769,440.408752 376.445312,440.409851 375.927856,440.410950 
	C375.927856,450.886505 375.927856,461.362091 375.998322,472.689148 
z"/>
<path fill="#000000" opacity="1.000000" stroke="none" 
	d="
M378.547058,437.548096 
	C378.206635,437.780518 377.776520,437.630341 377.156555,437.195465 
	C377.463593,436.995667 377.960480,437.080566 378.547058,437.548096 
z"/>
<path fill="#000000" opacity="1.000000" stroke="none" 
	d="
M343.747833,463.820557 
	C343.727173,463.461884 343.706482,463.103180 343.873596,462.019714 
	C343.967377,456.787201 343.873383,452.279541 343.779358,447.771851 
	C343.761627,447.405426 343.743927,447.039001 344.039124,446.132324 
	C346.025055,445.449615 347.698059,445.307129 349.371063,445.164642 
	C349.404724,450.328888 349.267426,455.502075 349.535706,460.654083 
	C349.698425,463.779724 348.620026,465.561584 345.054626,465.875916 
	C344.261200,464.983246 344.004517,464.401917 343.747833,463.820557 
z"/>
<path fill="#692F76" opacity="1.000000" stroke="none" 
	d="
M349.531494,444.758911 
	C347.698059,445.307129 346.025055,445.449615 344.068604,445.858398 
	C343.570099,444.516663 343.164642,442.905670 343.189178,441.301239 
	C343.218353,439.389404 342.016663,436.118469 345.438446,436.584717 
	C347.079224,436.808289 348.508362,439.586670 349.722870,441.414368 
	C350.171265,442.089142 349.728302,443.356232 349.531494,444.758911 
z"/>
<path fill="#692F76" opacity="1.000000" stroke="none" 
	d="
M343.572632,448.140381 
	C343.873383,452.279541 343.967377,456.787201 343.898712,461.751068 
	C343.612671,457.641113 343.489288,453.075012 343.572632,448.140381 
z"/>
<path fill="#692F76" opacity="1.000000" stroke="none" 
	d="
M343.560608,464.042542 
	C344.004517,464.401917 344.261200,464.983246 344.635193,465.861511 
	C344.292816,465.527100 343.833099,464.895844 343.560608,464.042542 
z"/>
<path fill="#692F76" opacity="1.000000" stroke="none" 
	d="
M217.556442,451.424713 
	C217.762726,447.828217 218.021225,444.614441 218.279724,441.400635 
	C218.506302,441.374695 218.732880,441.348785 218.959442,441.322876 
	C220.056168,445.582062 221.306351,449.809174 222.206299,454.109558 
	C223.099152,458.376038 221.652878,459.314484 217.906174,458.113708 
	C217.793610,455.727997 217.701126,453.767700 217.556442,451.424713 
z"/>
<path fill="#000000" opacity="1.000000" stroke="none" 
	d="
M556.928467,478.080505 
	C555.262878,477.307831 553.070923,476.483521 553.019958,475.543274 
	C552.700745,469.647369 552.858582,463.725616 552.858582,457.693573 
	C556.298157,456.690247 558.475159,456.685211 558.229797,460.833069 
	C557.892090,466.543671 557.665894,472.260864 556.928467,478.080505 
z"/>
<path fill="#692F76" opacity="1.000000" stroke="none" 
	d="
M557.200317,442.917053 
	C556.540039,445.574036 555.885864,447.793427 555.231689,450.012787 
	C554.408508,449.844543 553.585327,449.676270 552.762146,449.508026 
	C552.987244,445.310211 553.212341,441.112396 553.437439,436.914612 
	C554.259216,436.825897 555.080994,436.737152 555.902832,436.648438 
	C556.337341,438.592102 556.771851,440.535767 557.200317,442.917053 
z"/>
<path fill="#341B3F" opacity="1.000000" stroke="none" 
	d="
M313.836578,451.999695 
	C313.834961,447.840302 314.004761,444.167328 313.785065,440.517822 
	C313.522400,436.154388 315.442444,435.687225 319.103821,437.225494 
	C319.103821,445.903320 319.202271,454.548309 318.969086,463.184326 
	C318.942383,464.173462 317.061737,465.112518 316.040680,466.074768 
	C315.298004,465.044769 313.998718,464.057770 313.915283,462.976868 
	C313.647095,459.502075 313.827911,455.992615 313.836578,451.999695 
z"/>
<path fill="#341B3F" opacity="1.000000" stroke="none" 
	d="
M186.375336,456.931946 
	C186.383347,450.806976 186.249405,445.165863 186.504730,439.542358 
	C186.555573,438.421997 188.094986,437.369232 188.947998,436.285278 
	C189.926453,437.310974 191.719513,438.310669 191.753235,439.366547 
	C192.001709,447.147278 191.905914,454.939209 191.903885,462.727631 
	C191.902893,466.497833 189.639893,466.543518 186.370117,465.690491 
	C186.370117,462.969940 186.370117,460.195923 186.375336,456.931946 
z"/>
<path fill="#000000" opacity="1.000000" stroke="none" 
	d="
M585.877319,439.940430 
	C585.006714,439.033783 584.819031,438.146759 584.631287,437.259766 
	C585.378601,437.228638 586.125916,437.197510 586.873291,437.166382 
	C586.768921,438.097656 586.664551,439.028870 585.877319,439.940430 
z"/>
<path fill="#000000" opacity="1.000000" stroke="none" 
	d="
M375.963074,472.263428 
	C375.927856,461.362091 375.927856,450.886505 375.927856,440.410950 
	C376.445312,440.409851 376.962769,440.408752 377.480225,440.407684 
	C377.480225,451.663483 377.480225,462.919281 377.480225,474.606506 
	C376.879272,473.828979 376.438812,473.259064 375.963074,472.263428 
z"/>
</svg>